inDegrees=no
num_controls=7
num_derivatives=13
num_iterations=174
num_multipliers=7
num_parameters=0
num_slacks=7
num_states=26
objective=5.838601
objective_accelerations=0.843588
objective_balance=0.060266
objective_effort=0.306884
objective_height=4.582846
objective_ligament=0.045017
solver_duration=1927.316063
status=Solve_Succeeded
success=true
DataType=double
version=3
OpenSimVersion=4.4-2022-07-23-0e9fedc
endheader
time	/jointset/ground_pelvis/pelvis_tilt/value	/jointset/ground_pelvis/pelvis_tx/value	/jointset/ground_pelvis/pelvis_ty/value	/jointset/hip_l/hip_flexion_l/value	/jointset/hip_l/hip_adduction_l/value	/jointset/hip_l/hip_rotation_l/value	/jointset/back/lumbar_extension/value	/jointset/patellofemoral_l/patellar_flexion_l/value	/jointset/knee_l/knee_flexion_l/value	/jointset/knee_l/knee_adduction_l/value	/jointset/knee_l/knee_rotation_l/value	/jointset/ankle_l/ankle_angle_l/value	/jointset/subtalar_l/subtalar_angle_l/value	/jointset/ground_pelvis/pelvis_tilt/speed	/jointset/ground_pelvis/pelvis_tx/speed	/jointset/ground_pelvis/pelvis_ty/speed	/jointset/hip_l/hip_flexion_l/speed	/jointset/hip_l/hip_adduction_l/speed	/jointset/hip_l/hip_rotation_l/speed	/jointset/back/lumbar_extension/speed	/jointset/patellofemoral_l/patellar_flexion_l/speed	/jointset/knee_l/knee_flexion_l/speed	/jointset/knee_l/knee_adduction_l/speed	/jointset/knee_l/knee_rotation_l/speed	/jointset/ankle_l/ankle_angle_l/speed	/jointset/subtalar_l/subtalar_angle_l/speed	/forceset/tau_hip_flexion_l	/forceset/tau_hip_adduction_l	/forceset/tau_hip_rotation_l	/forceset/tau_knee_flexion_l	/forceset/tau_ankle_angle_l	/forceset/tau_subtalar_angle_l	/forceset/tau_lumbar_extension	lambda_cid13_p0	lambda_cid13_p1	lambda_cid13_p2	lambda_cid13_p3	lambda_cid13_p4	lambda_cid13_p5	lambda_cid14_p0	/jointset/ground_pelvis/pelvis_tilt/accel	/jointset/ground_pelvis/pelvis_tx/accel	/jointset/ground_pelvis/pelvis_ty/accel	/jointset/hip_l/hip_flexion_l/accel	/jointset/hip_l/hip_adduction_l/accel	/jointset/hip_l/hip_rotation_l/accel	/jointset/back/lumbar_extension/accel	/jointset/patellofemoral_l/patellar_flexion_l/accel	/jointset/knee_l/knee_flexion_l/accel	/jointset/knee_l/knee_adduction_l/accel	/jointset/knee_l/knee_rotation_l/accel	/jointset/ankle_l/ankle_angle_l/accel	/jointset/subtalar_l/subtalar_angle_l/accel	gamma_cid13_p0	gamma_cid13_p1	gamma_cid13_p2	gamma_cid13_p3	gamma_cid13_p4	gamma_cid13_p5	gamma_cid14_p0
0.5	-0.3782960353135937	-0.04144760889275312	0.743619926534942	1.185716788156504	-0.4372736786732125	-0.2129372791836826	-0.2555167365212213	0.8664975225822215	0.8664975225822332	-0.1044859746208428	-0.163917186964205	0.1267700660985867	-0.02281301951603606	-0.8579032644584913	-0.2147887787924148	-0.5998322411138469	2.705771221452223	-0.1949152442871612	0.7812610180394843	-0.1075037634053615	2.141111132918907	2.141111132919074	0.1941548903611374	-0.07132829366805564	0.4914206661882511	0.03070100214753063	-0.1868218592811189	0.01935483416405549	-0.01178782242477479	-0.211453623707038	0.05037179606189413	0.04951268620875897	0.178741640317982	-15.96347921758917	-21.87010945769669	6.762357413788379	-6.821886352620526	-519.3838324811203	-64.37428225859489	-22.38867105566581	0.9473449770312468	0.6750329055523152	-0.5143542333579696	-1.530521575160837	0.7943221960979018	-0.3330133808525408	1.125752948826007	-1.416842910816495	-1.416842910816479	0.1032169717217495	0.1946287502318012	-0.6524538221303058	0.552172782820477	-7.921701613321776e-07	-7.126259050169345e-08	4.578451748218905e-06	3.791202448408641e-07	-8.8293733303953e-07	4.020738353028588e-07	-6.261099750823448e-07
0.51	-0.38682551261444	-0.04356150016226019	0.7375972461193312	1.212692596709414	-0.4391846140891771	-0.2051383117065392	-0.2565369904469106	0.8878344549489501	0.8878344549489413	-0.1025456040091619	-0.1646195079218765	0.1316502343873431	-0.02248090197875639	-0.8478632514757583	-0.2079740437954948	-0.6045722547186497	2.689020528790138	-0.1872609882532793	0.7784299070482461	-0.09660270596672289	2.125989569196757	2.125989569196828	0.1939048678576551	-0.06913744589427631	0.4845269914743781	0.03569934194508837	-0.1930561369988513	0.01993090558784701	-0.01162262151452933	-0.2141638998543404	0.04933655542150907	0.04965889388064911	0.1834510064593452	-16.52630710276216	-21.79260322715639	6.701502955707376	-6.622402642827109	-523.5762213176824	-63.97747846090384	-21.3778121831427	1.051558998573134	0.6870881107410343	-0.4342610365597115	-1.802967629879585	0.7520074456928042	-0.2741054448582317	1.063929506455221	-1.602554415604358	-1.602554415618852	-0.09112355944445322	0.2320009575613015	-0.7206885854887295	0.4696519838594658	-7.667142939063029e-07	6.894974379803634e-08	4.631759183587183e-06	4.171911497673382e-07	-8.541594786660328e-07	5.357141164141979e-07	-6.126053393777745e-07
0.52	-0.3952507438775341	-0.04560676521900253	0.7315310783451685	1.239489773432067	-0.4410188009170711	-0.1973708444366211	-0.2574499043252009	0.9090116234159155	0.909011623415896	-0.100608135962127	-0.1652997827684931	0.1364588930710667	-0.022099603562374	-0.8370540569058436	-0.2010635362394719	-0.6085297128241904	2.670044855402165	-0.1795655266730218	0.7749609765930612	-0.08603575392516352	2.109158352967002	2.109158352966976	0.1935743774317228	-0.06691907145607935	0.4771187451815858	0.04053717796808962	-0.1992904147165838	0.02050697701165728	-0.0114574206042349	-0.2168741760016427	0.04830131478113105	0.04980510155256469	0.1881603726006983	-17.09029622608519	-21.71542151334458	6.641306319935675	-6.47241852418918	-527.821513454347	-63.65388494134311	-20.3763879020822	1.101181294467733	0.6941874173728015	-0.3578431335055762	-1.975517720338385	0.802563305373058	-0.4605772736418295	1.058931869410254	-1.758773412337338	-1.758773412337331	0.08712338723181508	0.2001340831153738	-0.7553681379142658	0.5200720279091516	-7.338496568330876e-07	2.211724546611319e-07	4.668048198026569e-06	4.557913867295238e-07	-8.20074901133568e-07	6.704727560067421e-07	-5.939102320155211e-07
0.53	-0.4035643440193264	-0.04758250987178988	0.7254292799732825	1.266086508794965	-0.4427757136485671	-0.1896408069776238	-0.258258774505406	0.9300121012900224	0.930012101290004	-0.09867439279096279	-0.1659574391693353	0.1411910488388007	-0.02167053167459111	-0.8255502291331774	-0.1940747800090361	-0.6116937593684699	2.648944096279211	-0.1718106096678919	0.7709407575526032	-0.07580694290103969	2.090661407267394	2.09066140726742	0.1931642907422795	-0.06461458461863198	0.4692372444893816	0.04525457390105666	-0.2052930362847553	0.0207521695732862	-0.01119743275234029	-0.2199516052647271	0.04764878360962167	0.04976821137414296	0.1926561728170212	-17.54005805753428	-21.57192793563318	6.562775494724335	-6.322525159927385	-532.0958402573888	-63.26150905992978	-19.38740038749264	1.192234279355381	0.7029070852713485	-0.2754155216281375	-2.231201485945657	0.7622757228494776	-0.3891288006028228	0.9945566013407969	-1.936410518591123	-1.936410518583394	-0.1063978190849621	0.2461867018945737	-0.8157595647669604	0.4435825452417751	-6.977571228777757e-07	3.04910597217232e-07	4.602563092462748e-06	4.711587985307243e-07	-7.794776194449373e-07	7.811396690768547e-07	-5.743419273695916e-07
0.54	-0.4117594557312637	-0.04948802949039469	0.719299895114606	1.292461467271089	-0.4444550132450585	-0.1819542486253013	-0.2589674163988868	0.9508193586331659	0.9508193586331614	-0.09674501511110598	-0.1665919345582367	0.1458421458936335	-0.02119508399362829	-0.8133563709329106	-0.187018529402966	-0.6140470101823173	2.625689478049393	-0.1640428996720995	0.7662651552579461	-0.06599009657979971	2.070514246775041	2.070514246775118	0.1927012791707305	-0.06228686906777367	0.4609070026014367	0.04981233660407684	-0.2112956578529694	0.02099736213491222	-0.0109374449003491	-0.2230290345278141	0.0469962524381163	0.04973132119571846	0.1971519730332998	-17.99061833116168	-21.42838639529719	6.48434517897579	-6.224736169118555	-536.4188248109202	-62.93698876822028	-18.41317649186309	1.239187379987984	0.7076862924995693	-0.1956839874191656	-2.406289541710843	0.8051219035056192	-0.5916539244816004	0.9765389288335615	-2.088816370886162	-2.088816370886175	0.07653841081070066	0.2047798257976043	-0.8451163770625034	0.4881453819197635	-6.580932987550376e-07	3.128785790932511e-07	4.424476832852825e-06	4.608218080261537e-07	-7.316747927324635e-07	8.651519059944893e-07	-5.538075321119353e-07
0.55	-0.4198292382877497	-0.05132284220531051	0.7131510101524433	1.318593513984252	-0.4460565711544591	-0.1743174636036192	-0.2595800883245582	0.971417151541633	0.9714171515416186	-0.09482062358516076	-0.1672030417416986	0.150407655998008	-0.02067490129490536	-0.8004767311145983	-0.1799513660814729	-0.6155951718380488	2.600377470973865	-0.1562751313621619	0.7610338793106877	-0.05663994874153064	2.048786011991026	2.048786011991046	0.192119596722936	-0.05991946773809206	0.4521109714280678	0.0541796457258272	-0.2174728655608475	0.02153701540484059	-0.01054708854150386	-0.2254399297752026	0.04526693398959965	0.04947031681713015	0.2016729830901599	-18.78618012166841	-21.11027464960729	6.358856502240589	-5.646284349578038	-540.5793195786573	-62.37128194725287	-17.45544768643447	1.330764574235175	0.705219513303286	-0.1143018129623965	-2.645130280898681	0.7610416076205917	-0.4980307641684408	0.8999036834782506	-2.253466949843006	-2.253466949851481	-0.1339957417135088	0.255859345930239	-0.9093973522269219	0.4037821289631463	-5.453108632609992e-07	2.023637911637242e-07	3.63717809620023e-06	3.642282606320271e-07	-6.066317862660632e-07	7.795337763987206e-07	-4.696277421093547e-07
0.5600000000000001	-0.4277665419877645	-0.05308718565474587	0.7069906596620606	1.344462145828559	-0.447580763918184	-0.1667348246082778	-0.2601021285774188	0.9917899341187246	0.9917899341187068	-0.0929037437175281	-0.167789847099979	0.1548826956176969	-0.0201124938146328	-0.7868605996369681	-0.1729246763068737	-0.616340115826283	2.573006504281343	-0.1485698705369095	0.7554359499906129	-0.04786376201705353	2.025512180499659	2.025512180499622	0.1911989475095787	-0.05742650403333536	0.4428129056645835	0.05825729291399736	-0.2236500732688162	0.02207666867474848	-0.01015673218264749	-0.2278508250225911	0.04353761554108716	0.04920931243851866	0.2061939931469332	-19.58223746330013	-20.79075051178733	6.231631264904553	-5.114380006373833	-544.7811587693676	-61.86802713003275	-16.5154491713997	1.386485711851664	0.6995915831207193	-0.03504045391969254	-2.818081465109609	0.7926204065685871	-0.6649845990448299	0.861746706075243	-2.397935712356468	-2.397935712356494	0.008745057698198486	0.2298923008126663	-0.9455232950856679	0.430212995203709	-3.447860941214032e-07	-5.033032053245333e-08	2.118824387096455e-06	1.641268449704365e-07	-3.889005640949539e-07	4.903592069868744e-07	-3.090734784128673e-07
0.5700000000000001	-0.4355645706618247	-0.05478142027648661	0.7008268965567878	1.370047451460208	-0.4490275751523431	-0.1592131332262684	-0.2605390412477847	1.01192252547708	1.011922525477075	-0.0909940251673233	-0.1683523972886834	0.1592627314831948	-0.01950968106023308	-0.7726476873236082	-0.165921542325102	-0.6162724280324667	2.543712548423831	-0.1408097836094007	0.7488620786674234	-0.03962527738893398	2.000751507981265	2.000751507981229	0.1906625589411645	-0.05505534899523034	0.4331365890640463	0.06226135030652873	-0.2290941093151716	0.02183558502427672	-0.009702040881554172	-0.2314719988709709	0.04347394442427412	0.04880584448576103	0.2101722205139592	-19.84899475694824	-20.5022536773213	6.109605201052325	-5.018800048469153	-548.9973778772346	-61.44265480079565	-15.59389119494595	1.45328060794705	0.7007903506209977	0.04863182748058385	-3.036399348418951	0.7649492749918994	-0.6598049112842092	0.7889235413536069	-2.553276848916169	-2.553276848915967	-0.09717898089716462	0.2452190843046048	-0.9873358390295389	0.3787995950440212	-1.987957838546955e-07	-2.814084926609844e-07	9.271075066399906e-07	-2.715524409467641e-10	-2.241624062665402e-07	2.395542559716866e-07	-1.89993090768216e-07
